<?xml version="1.0" standalone="no"?>
<!DOCTYPE svg PUBLIC "-//W3C//DTD SVG 20010904//EN"
 "http://www.w3.org/TR/2001/REC-SVG-20010904/DTD/svg10.dtd">
<svg version="1.0" xmlns="http://www.w3.org/2000/svg"
 width="493.000000pt" height="357.000000pt" viewBox="0 0 493.000000 357.000000"
 preserveAspectRatio="xMidYMid meet">
<metadata>
Created by potrace 1.16, written by Peter Selinger 2001-2019
</metadata>
<g transform="translate(0.000000,357.000000) scale(0.100000,-0.100000)"
fill="#000000" stroke="none">
<path d="M3381 3523 c-22 -18 -22 -18 23 -15 l46 4 -10 -27 c-11 -29 -14 -144
-4 -169 14 -37 24 -10 24 67 0 131 -3 127 97 127 l85 0 -3 -100 c-3 -61 0
-101 6 -102 6 -2 11 37 13 99 3 96 4 102 25 105 12 2 21 8 20 13 -2 6 -63 11
-152 13 -130 2 -151 0 -170 -15z"/>
<path d="M3976 3289 c-7 -24 -27 -591 -21 -597 3 -4 9 -1 13 5 4 6 32 13 62
17 108 11 587 27 663 21 98 -7 101 7 15 60 -35 22 -85 56 -113 76 -27 20 -108
74 -180 119 -181 113 -402 268 -420 293 -11 15 -15 17 -19 6z m143 -129 c80
-58 90 -69 94 -100 3 -31 5 -33 12 -12 4 13 11 22 14 20 18 -8 296 -186 379
-244 l93 -64 -243 0 c-134 0 -273 -3 -310 -7 l-68 -6 0 41 c0 65 -6 72 -61 72
l-49 0 0 53 c0 28 3 116 7 195 6 133 7 142 24 130 9 -7 58 -42 108 -78z"/>
<path d="M151 3279 c-83 -11 -104 -29 -34 -29 l51 0 -1 -102 c0 -57 3 -114 8
-128 8 -24 9 -23 16 15 4 22 8 79 8 128 l1 87 66 0 65 0 -6 -112 c-5 -82 -3
-121 6 -143 l12 -30 8 45 c4 25 8 88 8 140 l1 95 56 -3 c44 -3 55 -1 52 10 -8
22 -215 40 -317 27z"/>
<path d="M1958 3166 c-67 -29 -131 -72 -174 -118 -79 -83 -158 -230 -188 -344
-23 -90 -54 -314 -49 -356 4 -30 2 -36 -14 -35 -17 2 -18 -7 -16 -132 2 -134
16 -205 49 -259 14 -21 13 -23 -13 -33 -83 -33 -142 -49 -245 -69 -62 -12
-138 -32 -168 -45 -30 -13 -79 -26 -108 -29 -43 -4 -65 -14 -114 -51 -33 -25
-64 -45 -69 -45 -19 0 -266 -129 -334 -174 -73 -49 -83 -62 -84 -112 -1 -36
-30 -66 -85 -89 -38 -16 -38 -16 -20 -38 11 -12 24 -25 29 -29 11 -9 10 -10
-167 -154 -124 -101 -188 -165 -188 -186 0 -6 37 24 83 68 134 129 293 255
312 248 15 -6 15 -4 5 13 -7 11 -22 24 -33 29 -24 10 -35 34 -16 34 7 0 27 11
45 25 l33 25 3 -37 c3 -37 5 -38 43 -41 22 -1 110 -9 195 -18 148 -16 501 -16
517 0 15 14 -12 15 -138 5 -101 -8 -165 -8 -254 1 -66 6 -173 14 -237 17
l-118 6 0 57 c0 106 4 113 94 171 44 29 117 71 161 92 44 21 125 61 180 88 56
27 106 49 112 49 21 0 74 -62 105 -123 17 -34 55 -123 84 -199 43 -111 54
-149 54 -196 -1 -89 -18 -203 -36 -229 l-15 -24 -33 43 c-31 40 -102 98 -120
98 -5 0 9 -14 30 -32 22 -18 56 -52 77 -77 l38 -44 -20 -20 c-19 -19 -57 -36
-128 -58 -30 -9 -37 -6 -95 41 -61 49 -153 100 -180 100 -7 0 13 -14 45 -30
32 -16 85 -51 118 -77 65 -53 65 -52 -27 -66 -37 -6 -42 -4 -55 19 -27 52
-126 131 -221 177 -51 25 -104 48 -118 52 -14 3 18 -16 70 -42 52 -26 116 -63
141 -80 52 -36 131 -121 124 -133 -7 -12 -77 -23 -84 -13 -10 14 -114 55 -146
58 -16 2 -77 9 -135 16 -97 11 -115 11 -232 -9 -137 -24 -219 -49 -226 -70 -3
-11 0 -12 17 -3 27 15 27 0 1 -24 -12 -11 -20 -31 -20 -49 l0 -31 20 40 c43
87 53 93 185 115 66 11 143 20 170 20 68 0 272 -35 315 -54 l35 -15 -50 0
c-27 0 -83 4 -124 9 -56 7 -90 6 -143 -5 -113 -23 -332 -137 -392 -204 -29
-32 -12 -25 46 19 63 48 221 130 297 155 58 19 107 21 291 16 128 -4 289 21
411 65 37 13 69 24 72 24 3 0 -5 -24 -18 -52 -18 -38 -24 -69 -24 -108 l1 -55
9 50 c17 106 18 106 45 36 13 -35 24 -74 24 -87 0 -23 -2 -24 -77 -24 -43 1
-97 5 -121 9 -50 10 -62 -3 -62 -66 0 -83 -51 -249 -79 -257 -32 -9 -78 -16
-191 -31 -63 -8 -160 -22 -215 -30 -107 -16 -236 -18 -352 -6 l-73 7 0 -68 0
-67 28 5 c15 2 173 8 352 13 265 6 329 5 351 -6 15 -8 103 -20 196 -28 92 -8
195 -19 228 -25 33 -5 85 -10 116 -10 44 0 58 -4 63 -17 6 -15 33 -16 309 -10
418 9 883 58 1012 107 39 15 88 63 128 124 l31 49 125 -6 c70 -4 160 -11 201
-16 112 -14 538 -34 588 -27 23 3 102 -1 175 -10 76 -9 225 -17 350 -17 198
-2 220 0 231 16 11 14 29 17 102 17 49 0 146 3 217 7 l127 6 0 46 c0 33 -3 42
-10 31 -15 -23 -453 -19 -530 5 -30 9 -61 19 -69 21 -10 3 -12 23 -9 87 3 45
6 89 9 97 3 11 -42 38 -165 99 l-169 84 44 13 c24 7 53 18 64 23 11 6 81 29
155 52 150 46 263 60 324 39 45 -15 61 -5 20 11 -40 17 -189 15 -244 -4 -25
-8 -85 -27 -135 -41 -49 -15 -105 -33 -122 -41 -18 -8 -33 -12 -33 -9 0 39
199 322 284 403 35 34 36 34 78 22 85 -26 265 -128 424 -241 46 -33 84 -54 84
-47 0 24 -325 230 -449 283 -68 30 -72 33 -47 40 15 3 47 1 72 -6 24 -7 47
-10 50 -7 20 19 -183 109 -435 191 -117 38 -126 43 -129 68 -3 24 -8 27 -50
30 -45 3 -47 4 -53 38 -3 19 -13 51 -21 71 -13 31 -24 39 -79 58 -104 37 -120
46 -200 109 -85 69 -159 102 -227 103 -70 1 -294 -17 -400 -32 -75 -11 -101
-11 -139 0 -26 6 -49 14 -51 16 -2 2 13 30 34 61 41 62 52 116 53 261 1 77 -5
103 -23 103 -8 0 -11 41 -12 138 0 198 -33 304 -137 445 -53 71 -140 147 -169
147 -8 0 -26 17 -39 37 -18 29 -40 45 -94 67 -65 28 -80 30 -220 33 -140 3
-154 1 -207 -21z m492 -321 c0 -23 52 -123 108 -207 64 -95 96 -173 123 -299
l21 -98 -32 -45 c-17 -26 -33 -46 -35 -46 -2 0 -13 16 -25 35 l-22 35 -82 0
c-100 0 -160 -25 -191 -81 -18 -33 -23 -35 -45 -27 -14 5 -46 8 -73 5 -46 -4
-48 -3 -69 34 -18 32 -28 40 -70 49 -64 13 -174 12 -218 -3 -19 -7 -44 -26
-56 -44 l-21 -32 -62 55 -61 56 0 57 c0 120 74 253 225 406 40 40 64 55 120
73 99 32 226 54 325 56 85 2 120 10 120 27 0 5 5 9 10 9 6 0 10 -7 10 -15z
m-873 -578 c25 -37 48 -123 63 -234 5 -43 16 -104 24 -135 8 -34 10 -60 5 -64
-23 -14 -47 13 -88 96 -41 85 -44 97 -54 219 -5 72 -7 137 -4 145 8 22 28 12
54 -27z m1267 27 c9 -23 7 -107 -3 -199 -8 -71 -15 -89 -53 -145 l-43 -65 -5
112 c-3 61 -7 114 -10 116 -3 3 -5 -47 -5 -111 0 -167 -15 -219 -118 -422 -49
-96 -82 -168 -73 -159 9 8 30 42 46 75 l30 59 -6 -45 c-8 -60 -50 -205 -75
-255 -43 -89 -168 -195 -228 -195 -11 0 -22 -4 -26 -9 -10 -17 68 0 110 24 42
24 120 109 154 167 11 18 27 60 35 93 8 33 21 80 30 104 9 24 16 62 16 86 0
29 12 67 39 121 22 44 48 113 59 154 11 41 24 76 29 77 18 6 72 -121 88 -206
19 -102 19 -160 1 -276 -18 -111 -54 -223 -107 -329 -23 -44 -53 -105 -68
-133 -14 -29 -29 -53 -32 -53 -3 0 -12 15 -21 32 -9 18 -30 52 -47 75 -26 37
-36 43 -67 43 -42 0 -235 -63 -282 -92 -39 -24 -45 -20 -64 47 l-14 50 63 -3
63 -4 -30 -25 c-17 -14 -35 -35 -41 -47 -7 -12 9 -2 34 23 26 24 44 47 42 51
-2 4 -33 10 -68 13 -83 8 -163 40 -209 84 -44 43 -90 133 -117 231 -11 41 -23
84 -26 95 -5 17 -1 14 14 -8 38 -55 22 -9 -19 54 -22 34 -51 83 -64 109 -58
116 -148 463 -124 478 6 4 7 28 3 58 l-8 51 54 -50 c30 -27 62 -66 72 -86 27
-54 54 -79 85 -78 21 1 22 2 7 6 -30 7 -56 34 -72 72 -13 30 -13 38 2 71 9 21
28 43 41 49 32 14 219 14 246 0 23 -12 57 -83 58 -118 0 -14 -10 -35 -22 -48
-12 -13 -17 -23 -10 -23 19 0 54 53 49 77 -4 19 1 23 38 29 56 8 82 -1 99 -34
8 -15 24 -36 36 -47 23 -20 23 -20 12 0 -6 11 -17 29 -25 39 -13 17 -12 25 6
65 19 44 33 61 50 61 5 0 5 -4 2 -10 -12 -20 13 -10 26 11 12 17 28 21 94 26
l80 5 23 -36 c29 -43 39 -105 21 -137 -11 -22 -11 -23 4 -11 8 7 18 30 22 50
5 32 44 92 59 92 2 0 6 -8 8 -17 2 -10 14 12 26 48 13 36 32 76 43 87 23 26
54 29 63 6z m-1241 -436 c9 -21 11 -41 6 -56 -14 -37 -14 -152 -1 -227 7 -38
29 -133 49 -210 20 -77 37 -160 39 -185 3 -40 2 -42 -5 -13 -5 18 -15 43 -24
55 -29 43 -168 181 -174 174 -4 -4 -6 -25 -4 -48 3 -49 -8 -150 -19 -167 -11
-19 -106 82 -126 136 -9 24 -21 43 -26 43 -5 0 -8 6 -6 13 1 6 -6 37 -17 67
-17 50 -19 53 -26 30 -4 -14 -7 -19 -8 -12 -1 18 -55 135 -88 190 -40 70 -37
41 5 -44 42 -83 73 -178 93 -281 16 -86 7 -267 -16 -311 -9 -18 -19 -32 -21
-29 -2 2 0 46 5 98 9 101 1 216 -15 227 -6 4 -21 36 -33 72 -36 100 -114 261
-145 298 -18 21 -37 32 -54 32 -41 0 -12 21 39 27 l44 6 -19 -22 c-27 -29 -16
-26 42 13 51 34 112 53 260 81 46 9 116 29 155 45 40 16 73 29 74 29 2 1 9
-14 16 -31z m1670 0 c-40 -43 -87 -129 -108 -198 -9 -31 -18 -113 -22 -185 -6
-127 -5 -132 26 -220 17 -49 31 -107 31 -130 0 -22 4 -56 10 -74 5 -19 9 -36
7 -37 -1 -1 -23 0 -49 3 -53 6 -45 -8 -133 226 -30 81 -55 161 -55 176 0 66
-24 82 -34 24 -4 -21 -21 -83 -39 -138 -17 -55 -31 -106 -30 -112 0 -7 -3 -11
-7 -8 -4 3 -11 -3 -15 -13 -5 -12 -11 -3 -20 33 -11 43 -11 58 2 105 9 30 18
114 20 186 6 152 -10 247 -57 330 l-28 50 56 -11 c40 -8 79 -9 127 -3 107 14
224 25 289 27 l60 1 -31 -32z m206 8 c26 -14 72 -46 102 -71 62 -53 96 -72
192 -106 82 -29 91 -44 111 -190 13 -99 14 -101 15 -41 l1 62 40 0 40 0 2
-142 2 -143 3 113 c4 112 4 113 26 107 127 -39 456 -161 472 -176 5 -5 -6 -9
-29 -9 -51 0 -92 -27 -167 -108 -70 -77 -217 -290 -235 -342 -10 -29 -18 -36
-52 -44 -37 -8 -47 -5 -119 36 -43 25 -89 49 -103 53 -14 4 -45 19 -69 33
l-45 26 100 31 c102 33 213 84 181 85 -10 0 -47 -13 -82 -30 -35 -16 -99 -39
-143 -51 l-78 -20 -100 25 c-54 14 -141 28 -192 32 -78 6 -92 9 -88 23 2 9 7
41 11 71 8 71 35 176 68 263 14 37 22 67 18 67 -17 0 -101 -263 -101 -316 0
-11 -5 -36 -12 -54 -10 -30 -12 -32 -19 -14 -4 10 -8 42 -8 70 -1 30 -14 87
-33 140 -29 80 -32 100 -31 199 1 175 45 312 129 405 34 37 40 40 90 40 38 0
69 -7 103 -24z m-1759 -158 c20 -59 51 -130 69 -160 21 -33 43 -90 58 -153 47
-190 125 -307 223 -336 45 -14 55 -26 69 -88 l9 -41 -53 30 c-28 16 -77 35
-107 42 -52 12 -59 18 -112 85 -60 76 -90 94 -130 75 -22 -10 -24 -8 -30 35
-3 25 -6 79 -6 119 0 48 -4 74 -11 74 -8 0 -10 -15 -6 -46 12 -107 -23 16 -69
241 -15 76 -15 199 1 225 4 6 18 9 32 7 23 -3 30 -15 63 -109z m79 -558 c19
-10 110 -128 112 -145 0 -5 4 -15 9 -20 16 -19 51 -123 75 -222 13 -54 26
-105 30 -115 7 -19 -10 -24 -126 -34 l-76 -6 -11 43 c-6 24 -14 63 -18 87 -3
23 -9 40 -14 37 -17 -11 -44 40 -61 117 -14 63 -18 71 -14 33 3 -27 11 -86 19
-130 21 -110 21 -191 0 -199 -9 -3 -46 -6 -83 -6 l-68 0 -12 83 c-7 45 -19
108 -27 139 -8 32 -13 74 -10 95 2 21 1 30 -1 20 -4 -18 -5 -18 -19 0 -14 17
-15 17 -10 -2 23 -94 45 -199 51 -245 3 -30 9 -63 12 -73 4 -16 -3 -18 -79
-15 l-83 3 -6 45 c-5 41 -26 124 -49 190 -4 14 -11 34 -14 44 -4 10 -9 17 -11
14 -3 -3 2 -24 10 -48 22 -63 55 -199 55 -227 0 -17 -4 -23 -14 -20 -8 3 -45
9 -82 13 l-69 7 -22 46 c-12 25 -32 70 -43 100 l-21 53 26 42 c59 94 70 106
110 118 22 6 58 27 80 44 46 37 92 57 113 49 8 -3 38 15 69 42 l55 47 64 -17
c62 -16 65 -16 97 3 37 23 34 23 56 10z m1538 -169 c166 -16 260 -43 416 -122
78 -38 146 -74 152 -79 6 -5 98 -52 203 -105 l192 -95 0 -45 c0 -55 -6 -56
-122 -16 -100 35 -191 61 -210 61 -15 -1 178 -64 269 -88 l63 -17 0 -44 0 -43
-77 6 c-84 8 -321 44 -333 51 -3 2 -60 14 -126 25 -65 12 -140 27 -166 35 -26
7 -80 17 -120 20 -82 8 -176 31 -288 70 -41 14 -124 36 -183 49 l-109 22 70
17 c38 9 101 18 138 18 l69 1 -49 10 c-114 24 -378 -66 -338 -114 7 -9 3 -25
-15 -56 l-25 -43 -112 7 c-69 4 -121 2 -136 -4 -20 -9 -6 -11 70 -12 85 -1
191 -14 165 -20 -5 -1 -64 -4 -130 -5 -360 -7 -938 -25 -942 -29 -7 -7 710 1
900 9 100 5 157 4 157 -2 0 -6 -5 -24 -11 -42 l-11 -31 -194 5 c-128 3 -194 2
-194 -5 0 -6 49 -10 129 -10 70 0 156 -3 190 -6 59 -7 61 -8 61 -35 0 -26 -2
-27 -34 -22 -18 3 -56 0 -84 -6 -52 -11 -1708 -19 -1718 -8 -3 3 1 16 9 29 8
12 20 40 26 60 12 37 12 37 59 32 26 -2 90 -9 142 -14 52 -5 151 -16 219 -25
68 -9 131 -14 140 -12 9 2 -11 7 -44 11 -33 4 -105 14 -160 21 -79 12 -304 35
-336 35 -3 0 -4 12 -1 26 4 24 7 25 56 20 l51 -5 -45 12 c-30 9 -46 19 -48 32
-4 17 2 18 74 12 56 -4 70 -3 49 4 -16 5 -51 10 -76 10 -41 1 -46 4 -41 21 4
17 11 19 41 14 20 -3 63 -8 96 -11 l60 -5 -65 15 c-36 7 -80 14 -98 14 -26 1
-33 5 -30 19 2 9 12 16 22 15 470 -41 686 -47 885 -24 56 7 124 14 152 16 27
2 107 11 177 19 376 45 409 46 477 10 28 -15 61 -35 74 -46 27 -21 41 -17 21
7 -11 13 -9 20 11 41 44 46 224 118 349 139 54 9 87 24 53 25 -37 0 -155 -28
-233 -55 -87 -31 -155 -68 -186 -102 -20 -21 -26 -23 -45 -12 l-23 12 35 28
c47 38 128 77 229 110 50 16 74 28 59 28 -65 2 -240 -72 -300 -126 -51 -46
-64 -36 -39 29 43 114 209 236 385 282 24 6 160 0 302 -13z m-1337 -73 c0 -3
24 -23 53 -44 28 -21 70 -54 92 -73 22 -20 51 -43 65 -53 l25 -16 -50 -22
c-27 -12 -73 -23 -102 -25 -60 -3 -53 -14 -83 123 -11 52 -27 107 -35 122 -23
45 -18 58 10 25 13 -16 24 -33 25 -37z"/>
<path d="M225 2699 c-61 -54 -70 -135 -20 -185 19 -19 35 -24 73 -24 32 0 54
5 62 15 7 8 19 15 26 15 9 0 14 12 14 34 l0 35 -72 -6 c-40 -3 -77 -9 -82 -14
-12 -11 37 -22 79 -17 19 2 35 1 35 -2 0 -16 -28 -30 -62 -30 -72 0 -101 67
-58 138 28 45 60 57 83 30 9 -11 17 -29 17 -39 0 -10 5 -19 10 -19 20 0 10 56
-13 78 -31 30 -50 28 -92 -9z"/>
<path d="M735 2646 c-9 -58 -37 -102 -69 -108 -14 -3 -28 -3 -31 0 -9 10 -5
101 5 107 6 3 10 13 10 21 0 12 -10 14 -42 12 -44 -3 -67 -28 -26 -28 21 0 23
-3 20 -45 -7 -77 2 -95 47 -95 23 0 48 8 64 20 l25 20 5 -22 c10 -35 14 -19
22 75 6 74 5 87 -8 87 -11 0 -18 -14 -22 -44z"/>
</g>
</svg>
